<svg xmlns="http://www.w3.org/2000/svg" width="400" height="400" viewBox="0 0 400 400">
  <circle cx="200" cy="200" r="80" fill="#e6f0ff" stroke="#0070f3" stroke-width="2"/>
  <circle cx="200" cy="200" r="30" fill="#0070f3"/>
  <text x="200" y="205" font-family="Arial" font-size="14" fill="white" text-anchor="middle">Bravilo</text>
  
  <g transform="translate(200, 200)">
    <!-- Outer circles -->
    <circle cx="0" cy="-120" r="25" fill="#f0f4f8" stroke="#0070f3" stroke-width="2"/>
    <circle cx="104" cy="-60" r="25" fill="#f0f4f8" stroke="#0070f3" stroke-width="2"/>
    <circle cx="104" cy="60" r="25" fill="#f0f4f8" stroke="#0070f3" stroke-width="2"/>
    <circle cx="0" cy="120" r="25" fill="#f0f4f8" stroke="#0070f3" stroke-width="2"/>
    <circle cx="-104" cy="60" r="25" fill="#f0f4f8" stroke="#0070f3" stroke-width="2"/>
    <circle cx="-104" cy="-60" r="25" fill="#f0f4f8" stroke="#0070f3" stroke-width="2"/>
    
    <!-- Lines connecting to center -->
    <line x1="0" y1="-30" x2="0" y2="-95" stroke="#0070f3" stroke-width="2"/>
    <line x1="26" y1="-15" x2="79" y2="-45" stroke="#0070f3" stroke-width="2"/>
    <line x1="26" y1="15" x2="79" y2="45" stroke="#0070f3" stroke-width="2"/>
    <line x1="0" y1="30" x2="0" y2="95" stroke="#0070f3" stroke-width="2"/>
    <line x1="-26" y1="15" x2="-79" y2="45" stroke="#0070f3" stroke-width="2"/>
    <line x1="-26" y1="-15" x2="-79" y2="-45" stroke="#0070f3" stroke-width="2"/>
    
    <!-- Icons in circles -->
    <text x="0" y="-115" font-family="Arial" font-size="12" fill="#0070f3" text-anchor="middle">Email</text>
    <text x="104" y="-55" font-family="Arial" font-size="12" fill="#0070f3" text-anchor="middle">CRM</text>
    <text x="104" y="65" font-family="Arial" font-size="12" fill="#0070f3" text-anchor="middle">ERP</text>
    <text x="0" y="125" font-family="Arial" font-size="12" fill="#0070f3" text-anchor="middle">Chat</text>
    <text x="-104" y="65" font-family="Arial" font-size="12" fill="#0070f3" text-anchor="middle">Calendar</text>
    <text x="-104" y="-55" font-family="Arial" font-size="12" fill="#0070f3" text-anchor="middle">Docs</text>
  </g>
</svg>
