<svg xmlns="http://www.w3.org/2000/svg" viewBox="0 0 48 48">
  <path fill="#33D375" d="M19,24c0,2.209-1.791,4-4,4s-4-1.791-4-4s1.791-4,4-4h4V24z"/>
  <path fill="#33D375" d="M20,24c0-2.209,1.791-4,4-4s4,1.791,4,4v10c0,2.209-1.791,4-4,4s-4-1.791-4-4V24z"/>
  <path fill="#40ABE0" d="M24,19c-2.209,0-4-1.791-4-4s1.791-4,4-4s4,1.791,4,4v4H24z"/>
  <path fill="#40ABE0" d="M24,20c2.209,0,4,1.791,4,4s-1.791,4-4,4H14c-2.209,0-4-1.791-4-4s1.791-4,4-4H24z"/>
  <path fill="#E23B73" d="M29,24c0-2.209,1.791-4,4-4s4,1.791,4,4s-1.791,4-4,4h-4V24z"/>
  <path fill="#E23B73" d="M28,24c0,2.209-1.791,4-4,4s-4-1.791-4-4V14c0-2.209,1.791-4,4-4s4,1.791,4,4V24z"/>
  <path fill="#ECB02A" d="M24,29c2.209,0,4,1.791,4,4s-1.791,4-4,4s-4-1.791-4-4v-4H24z"/>
  <path fill="#ECB02A" d="M24,28c-2.209,0-4-1.791-4-4s1.791-4,4-4h10c2.209,0,4,1.791,4,4s-1.791,4-4,4H24z"/>
</svg>

